#!OML:ASF E:\Steps\Project 1\Capture day 1\Session 2\Subject.ASF
:FULLY-SPECIFIED
:DEGREES
599
root 12.2172 18.0274 16.8657 -153.621 0.166392 176.213
lowerback -26.8263 -2.26057 -7.46967
upperback -1.11959 -1.12769 -0.625346
thorax 13.8902 -1.19535 3.09859
lowerneck 1.40351 -2.16032 0.17904
upperneck 2.62152 -2.85456 1.59001
head 0.586577 -1.39276 0.449008
rclavicle -1.04859e-014 3.8763e-014
rhumerus -37.1968 -12.5681 -79.3494
rradius 34.0719
rwrist -6.74288
rhand -8.30807 -49.4035
rfingers 7.12502
rthumb 17.6124 -78.6258
lclavicle -1.04859e-014 3.8763e-014
lhumerus -30.7251 -0.969756 82.5758
lradius 35.4504
lwrist 0.605045
lhand -22.8805 -13.0541
lfingers 7.12502
lthumb 3.5585 16.8959
rfemur 157.062 -182.026 -159.404
rtibia 6.7898
rfoot -19.0115 -3.09466
rtoes -15.4919
lfemur -24.0146 -7.37174 -23.5063
ltibia 9.26757
lfoot -7.64527 -6.33161
ltoes -37.0913
600
root 12.2121 18.0253 16.8589 -153.673 0.207026 176.222
lowerback -26.9984 -2.22963 -7.41097
upperback -1.05707 -1.07732 -0.669563
thorax 14.0515 -1.172 3.02905
lowerneck 1.36614 -2.43707 0.446025
upperneck 2.41251 -3.22321 1.62007
head 0.527816 -1.57764 0.414812
rclavicle 7.95139e-016 -3.97569e-016
rhumerus -37.0616 -12.4902 -79.4915
rradius 34.1296
rwrist -6.79341
rhand -8.50313 -49.7186
rfingers 7.12502
rthumb 17.4247 -78.9576
lclavicle 7.95139e-016 -3.97569e-016
lhumerus -30.5636 -1.21649 82.7011
lradius 35.9118
lwrist 0.811129
lhand -22.6533 -13.2948
lfingers 7.12502
lthumb 3.77789 16.6514
rfemur 157.116 -182.099 -159.431
rtibia 6.87999
rfoot -18.2424 -3.17993
rtoes -17.8131
lfemur -23.8934 -7.42467 -23.5313
ltibia 9.21636
lfoot -7.07402 -6.21637
ltoes -33.2741
601
root 12.2084 18.0248 16.8533 -153.724 0.188591 176.284
lowerback -27.0397 -2.23173 -7.34337
upperback -1.04864 -1.09845 -0.645892
thorax 14.0859 -1.17846 3.0089
lowerneck 1.41504 -2.53116 0.577969
upperneck 2.04476 -3.34789 1.5622
head 0.4055 -1.6457 0.378829
rclavicle -7.95139e-016 -1.49089e-014
rhumerus -37.0149 -12.4556 -79.521
rradius 34.1526
rwrist -6.7449
rhand -8.46814 -49.4942
rfingers 7.12502
rthumb 17.4584 -78.7303
lclavicle -7.95139e-016 -1.49089e-014
lhumerus -30.4064 -1.38122 82.9068
lradius 36.1859
lwrist 0.942991
lhand -22.7878 -13.1729
lfingers 7.12502
lthumb 3.64807 16.7756
rfemur 157.215 -182.332 -159.413
rtibia 6.84685
rfoot -19.6147 -3.28902
rtoes -14.3635
lfemur -23.8041 -7.46525 -23.4703
ltibia 9.18514
lfoot -7.41825 -6.17241
ltoes -35.8907
602
root 12.2062 18.0261 16.8486 -153.772 0.226614 176.335
lowerback -27.0405 -2.2539 -7.34038
upperback -1.06585 -1.13722 -0.593598
thorax 14.0712 -1.19736 3.0533
lowerneck 1.92668 -2.49331 0.60675
upperneck 0.974322 -3.28782 1.60069
head -0.000185158 -1.63235 0.401142
rclavicle 4.87022e-015 3.3197e-014
rhumerus -36.9885 -12.6343 -79.3984
rradius 34.0968
rwrist -6.38907
rhand -8.43972 -49.6854
rfingers 7.12502
rthumb 17.4857 -78.919
lclavicle 4.87022e-015 3.3197e-014
lhumerus -30.2841 -1.4315 83.0548
lradius 36.5788
lwrist 1.30815
lhand -22.6471 -12.6435
lfingers 7.12502
lthumb 3.7839 17.3027
rfemur 157.284 -182.443 -159.383
rtibia 6.81934
rfoot -20.094 -3.31458
rtoes -12.8174
lfemur -23.731 -7.35272 -23.4604
ltibia 9.18687
lfoot -7.75932 -6.17004
ltoes -38.6224
603
root 12.2047 18.0267 16.8445 -153.795 0.281462 176.36
lowerback -27.0331 -2.22331 -7.38944
upperback -1.15277 -1.09933 -0.597633
thorax 13.9589 -1.18356 3.09225
lowerneck 2.22626 -2.57851 0.759879
upperneck 0.656495 -3.38752 1.75732
head -0.144029 -1.68574 0.431909
rclavicle -5.86415e-015 -2.98177e-014
rhumerus -37.1394 -12.9526 -79.252
rradius 34.0615
rwrist -6.05883
rhand -8.58933 -50.2256
rfingers 7.12502
rthumb 17.3417 -79.472
lclavicle -5.86415e-015 -2.98177e-014
lhumerus -30.4295 -1.82921 83.2163
lradius 36.6944
lwrist 0.540781
lhand -23.2646 -13.0435
lfingers 7.12502
lthumb 3.18761 16.9125
rfemur 157.312 -182.475 -159.365
rtibia 6.83993
rfoot -19.6423 -3.34859
rtoes -14.2438
lfemur -23.6821 -7.26342 -23.4667
ltibia 9.1844
lfoot -7.54222 -6.16533
ltoes -37.526
604
root 12.2034 18.0273 16.839 -153.847 0.306332 176.347
lowerback -27.0493 -2.14667 -7.46781
upperback -1.24388 -0.986223 -0.65321
thorax 13.8452 -1.13681 3.11656
lowerneck 1.99439 -2.38713 0.70604
upperneck 1.50367 -3.13863 1.74422
head 0.148279 -1.54708 0.424237
rclavicle -1.98785e-016 -1.47101e-014
rhumerus -37.3951 -13.257 -79.1283
rradius 34.0398
rwrist -5.95351
rhand -8.63763 -50.3144
rfingers 7.12502
rthumb 17.2952 -79.5648
lclavicle -1.98785e-016 -1.47101e-014
lhumerus -30.6141 -2.40332 83.3806
lradius 37.1078
lwrist 0.55367
lhand -22.9801 -12.8406
lfingers 7.12502
lthumb 3.46231 17.111
rfemur 157.407 -182.559 -159.405
rtibia 6.80821
rfoot -18.1739 -3.52843
rtoes -18.878
lfemur -23.5738 -7.33474 -23.4627
ltibia 9.10222
lfoot -7.22069 -6.14049
ltoes -34.7567
605
root 12.2 18.0275 16.8325 -153.907 0.310416 176.309
lowerback -27.0797 -2.12981 -7.5324
upperback -1.28731 -0.949999 -0.666781
thorax 13.806 -1.12538 3.15154
lowerneck 1.93621 -2.17534 0.698677
upperneck 1.82734 -2.85653 1.58481
head 0.251152 -1.40108 0.373209
rclavicle 4.77083e-015 -8.74653e-015
rhumerus -37.5395 -13.3107 -79.0706
rradius 34.072
rwrist -6.0087
rhand -8.9524 -51.626
rfingers 7.12502
rthumb 16.9923 -80.9028
lclavicle 4.77083e-015 -8.74653e-015
lhumerus -30.6975 -2.71569 83.5459
lradius 37.4129
lwrist 0.73352
lhand -22.7981 -12.8865
lfingers 7.12502
lthumb 3.63806 17.0622
rfemur 157.536 -182.505 -159.457
rtibia 6.70536
rfoot -19.0986 -3.49521
rtoes -16.9673
lfemur -23.4516 -7.47273 -23.4867
ltibia 9.01681
lfoot -7.74535 -6.09543
ltoes -37.7485
606
root 12.1944 18.0254 16.8267 -153.906 0.308644 176.304
lowerback -27.074 -2.12503 -7.52266
upperback -1.39255 -0.968977 -0.659439
thorax 13.6787 -1.13351 3.14795
lowerneck 1.24172 -1.89623 0.605163
upperneck 3.15225 -2.48872 1.25897
head 0.762166 -1.19793 0.27573
rclavicle 6.11263e-015 1.25234e-014
rhumerus -37.7756 -13.2258 -79.0092
rradius 34.1238
rwrist -6.07003
rhand -8.23075 -49.9716
rfingers 7.12502
rthumb 17.6868 -79.1872
lclavicle 6.11263e-015 1.25234e-014
lhumerus -30.87 -2.94998 83.7048
lradius 37.6051
lwrist 0.841551
lhand -22.8048 -13.0899
lfingers 7.12502
lthumb 3.63165 16.8589
rfemur 157.59 -182.329 -159.446
rtibia 6.63273
rfoot -18.0816 -3.43632
rtoes -19.6853
lfemur -23.4013 -7.57455 -23.5042
ltibia 8.97387
lfoot -6.94693 -6.012
ltoes -34.0996
607
root 12.1907 18.0227 16.8201 -153.903 0.319319 176.356
lowerback -27.0721 -2.08546 -7.45351
upperback -1.50049 -0.960214 -0.65342
thorax 13.5463 -1.12522 3.11943
lowerneck 0.788807 -1.65694 0.557214
upperneck 4.04583 -2.15829 0.894056
head 1.10954 -1.02285 0.166311
rclavicle -5.96354e-016 -1.78906e-015
rhumerus -37.9979 -13.2314 -78.9242
rradius 34.086
rwrist -6.05993
rhand -8.02486 -49.3037
rfingers 7.12502
rthumb 17.8849 -78.5013
lclavicle -5.96354e-016 -1.78906e-015
lhumerus -31.01 -3.25938 83.8779
lradius 37.7797
lwrist 0.930131
lhand -22.8749 -12.9181
lfingers 7.12502
lthumb 3.5639 17.0319
rfemur 157.627 -182.324 -159.392
rtibia 6.63589
rfoot -19.0577 -3.35325
rtoes -16.6721
lfemur -23.3582 -7.58281 -23.4681
ltibia 8.93995
lfoot -7.66342 -5.97923
ltoes -37.6921
608
root 12.1877 18.0208 16.8133 -153.876 0.379081 176.42
lowerback -27.1985 -2.06108 -7.37444
upperback -1.50915 -0.947494 -0.640121
thorax 13.6019 -1.11825 3.09233
lowerneck 1.56813 -2.4229 0.818141
upperneck 2.36594 -3.1907 1.50205
head 0.471992 -1.55812 0.321587
rclavicle 4.57205e-015 2.3059e-014
rhumerus -37.9497 -13.2164 -78.9245
rradius 33.9892
rwrist -6.18196
rhand -8.42065 -49.5468
rfingers 7.12502
rthumb 17.5041 -78.7788
lclavicle 4.57205e-015 2.3059e-014
lhumerus -30.926 -3.47003 84.0145
lradius 37.8617
lwrist 0.945112
lhand -23.0576 -12.7913
lfingers 7.12502
lthumb 3.38752 17.1616
rfemur 157.62 -182.48 -159.373
rtibia 6.65182
rfoot -18.1082 -3.52271
rtoes -19.9398
lfemur -23.3307 -7.50397 -23.4265
ltibia 8.84629
lfoot -6.93518 -5.9592
ltoes -33.102
609
root 12.1837 18.019 16.8077 -153.829 0.512147 176.425
lowerback -27.354 -2.04739 -7.36988
upperback -1.50072 -0.919723 -0.649982
thorax 13.6926 -1.10991 3.0862
lowerneck 2.77332 -2.99898 1.01434
upperneck -0.240912 -3.90884 2.23689
head -0.50037 -1.96012 0.560973
rclavicle 5.56597e-015 2.44505e-014
rhumerus -37.9117 -13.1808 -78.9415
rradius 33.9315
rwrist -6.24905
rhand -8.62446 -50.1066
rfingers 7.12502
rthumb 17.3079 -79.3559
lclavicle 5.56597e-015 2.44505e-014
lhumerus -30.8455 -3.59593 84.0867
lradius 37.9349
lwrist 0.977737
lhand -22.8165 -13.0366
lfingers 7.12502
lthumb 3.62027 16.9124
rfemur 157.565 -182.508 -159.414
rtibia 6.66977
rfoot -19.1278 -3.37112
rtoes -16.7675
lfemur -23.2869 -7.38541 -23.4816
ltibia 8.71436
lfoot -7.60425 -5.97906
ltoes -38.1614
610
root 12.1816 18.0182 16.8038 -153.837 0.598204 176.387
lowerback -27.3257 -2.0679 -7.47679
upperback -1.57083 -0.933807 -0.622987
thorax 13.5967 -1.12388 3.17435
lowerneck 1.59042 -2.5695 0.598699
upperneck 1.7975 -3.39317 2.0529
head 0.311399 -1.66763 0.528385
rclavicle -2.18663e-015 3.22031e-014
rhumerus -38.0508 -13.2291 -78.8073
rradius 33.8576
rwrist -6.09376
rhand -8.45035 -50.531
rfingers 7.12502
rthumb 17.4755 -79.7655
lclavicle -2.18663e-015 3.22031e-014
lhumerus -30.9562 -3.57572 84.1857
lradius 37.9908
lwrist 0.911009
lhand -22.5597 -13.1384
lfingers 7.12502
lthumb 3.86832 16.8062
rfemur 157.601 -182.462 -159.463
rtibia 6.62632
rfoot -18.2509 -3.30557
rtoes -19.2644
lfemur -23.214 -7.31532 -23.5717
ltibia 8.65939
lfoot -6.96893 -5.97414
ltoes -34.2949
